#!OML:ASF F:\VICON\USERDATA\INSTALL\rory3\rory3.ASF
:FULLY-SPECIFIED
:DEGREES
10
root -0.5724059938809551 16.801314722789026 -26.682285308696127 3.785469256241688 -4.718777897978252 -6.260382811247824
lfemur -19.174398817071868 6.549161877867435 -9.258648029538165
ltibia 104.03298239190188
lfoot 27.941588225591286 -19.30008879497934
ltoes 11.508080713675357
rfemur -29.293394324021378 7.2110102543457755 35.66018966185335
rtibia 54.93230235917026
rfoot -21.732884858183912 -14.755485897919906
rtoes 2.2273101525981054
lowerback 18.708784973481954 -0.4197987186811821 3.592813692216714
upperback 0.2258049420833007 0.6313488492674806 3.9217807244342087
thorax -10.30349074025616 0.23074492614311787 2.0849925693148683
lowerneck -18.670504140586896 -2.413461514174164 -2.1965412061795995
upperneck 12.949595446865754 -2.837391952852842 0.8695061995966098
head 7.0614083685002385 -1.391060762636889 0.31690525604002767
lclavicle -6.47765758954973e-16 -4.860687341859907e-15
lhumerus -47.04760216682644 -7.934640560371601 96.79140084432049
lradius 95.07371914927111
lwrist 33.01059658663539
lhand -30.3222045623033 1.5007155407070976
lfingers 7.125019999999998
lthumb -3.628654526998054 31.449595456034125
rclavicle -6.47765758954973e-16 -4.860687341859907e-15
rhumerus -44.037706870576464 6.921129694581805 -93.36551423299466
rradius 99.03481245790697
rwrist -9.745759414060593
rhand -21.246187409400726 41.03769182930333
rfingers 7.125019999999998
rthumb 5.136692691968706 11.119992187915404
11
root -0.6128146500397129 16.80061471615488 -25.710686115445835 4.0054380444520525 -2.9272718438920213 -6.118673441692612
lfemur -26.082995207653486 5.815933672701041 -9.000978297102389
ltibia 106.73398312164151
lfoot 23.59529057706159 -17.756390390216747
ltoes 4.053908243117977
rfemur -25.495996189762863 7.040390556894915 35.85338985230947
rtibia 54.948602252794494
rfoot -25.806882298625467 -15.937683929527044
rtoes 5.749867852107165
lowerback 18.254786805760247 -0.5081779573186037 3.239094828745878
upperback 0.07468893089200346 0.4441188798024138 4.140888983858956
thorax -10.21869145330272 0.16801874773632447 2.574480263016298
lowerneck -17.83680796698063 -2.631740060951329 -2.373837820840275
upperneck 12.511797242075316 -3.1200604410403154 0.9598396631667065
head 6.788392091161607 -1.530869322195202 0.35478264286745925
lclavicle -6.477656970565858e-16 -4.860687390552724e-15
lhumerus -49.42730047503762 -8.060629768113671 97.75629737734509
lradius 95.04721921139323
lwrist 31.383198112813435
lhand -31.081801921668692 -0.31381925993315907
lfingers 7.125019999999998
lthumb -4.362091910775389 29.621301624310895
rclavicle -6.477656970565858e-16 -4.860687390552724e-15
rhumerus -41.67751015414665 8.165316871880812 -93.60801369830482
rradius 101.24000997565314
rwrist -10.425907867010958
rhand -21.048888322544187 41.0321920676739
rfingers 7.125019999999998
rthumb 5.327161638096742 11.1191921967084
12
root -0.638198809241994 16.86221377969367 -24.705087376411534 4.386135972302207 -1.125855517001517 -5.447525936156118
lfemur -32.344091860522056 4.67613643864204 -10.141317273805122
ltibia 107.03598090251546
lfoot 17.41159264661688 -15.048993617205024
ltoes -3.1653849867664565
rfemur -20.878898682054807 5.983772392792735 35.597289833868096
rtibia 52.939803071465604
rfoot -27.96978051143248 -17.45698114506772
rtoes 12.270594303769776
lowerback 17.586789505547753 -0.48529917141009893 2.7062362710057855
upperback -0.3367969459448475 0.33772840284795025 4.034969911013999
thorax -10.29699079948175 0.14315408078473452 2.787619126839643
lowerneck -16.66781353625131 -3.0658669315084923 -2.5339847570685827
upperneck 11.914599657222707 -3.7533075082310816 1.333507685295149
head 6.42181706747384 -1.8169962251184173 0.45175611173552765
lclavicle -6.477657177669085e-16 -4.86068742279524e-15
lhumerus -52.46239831758742 -9.191957554964782 98.97849296873022
lradius 96.50511746027668
lwrist 29.885199640800188
lhand -32.3859973252726 0.6993293011724346
lfingers 7.125019999999998
lthumb -5.6213773541427 30.604798289973935
rclavicle -6.477657177669085e-16 -4.86068742279524e-15
rhumerus -41.21441048533498 9.34673431593407 -94.43091154184606
rradius 105.3770062910352
rwrist -14.601298402539934
rhand -21.310287075049107 39.55839491217698
rfingers 7.125019999999998
rthumb 5.074792938882014 9.639145010941775
13
root -0.6565822047321306 16.95371230131796 -23.676787484767726 4.644544567302449 0.5501929443378938 -4.9032281344485105
lfemur -37.66728935137603 3.0037307033141696 -11.405115405332001
ltibia 105.11598231329992
lfoot 14.456894466729667 -13.14559629180174
ltoes 3.8242478597580902
rfemur -15.68220109277064 5.285413748816556 35.53528990963683
rtibia 49.61940390329645
rfoot -27.335080703465355 -18.871478377680404
rtoes -0.9820098350420849
lowerback 16.772992781998653 0.0629003267945108 2.955815532265921
upperback -0.2083713481348698 0.9985778867755676 3.3744850472299617
thorax -9.690025993648915 0.42711233882095007 1.7383843183909455
lowerneck -18.09380687103204 -4.0800697357764655 -2.05948381747429
upperneck 12.766496181289991 -5.296980030058106 1.7890752468313438
head 6.964519688644206 -2.4818490852577253 0.3231941374774546
lclavicle -6.477657445275168e-16 -4.860687304353336e-15
lhumerus -54.30799676780352 -12.433600871254962 99.8390898110999
lradius 98.17991513282851
lwrist 30.009299491916135
lhand -31.88969908697634 2.1662832944980925
lfingers 7.125019999999998
lthumb -5.142249101320257 32.083893205478
rclavicle -6.477657445275168e-16 -4.860687304353336e-15
rhumerus -39.58661241966568 8.432186376000434 -94.89001048898888
rradius 108.92800228062151
rwrist -16.785093347389868
rhand -21.830884450071313 38.02189782867266
rfingers 7.125019999999998
rthumb 4.572075554717181 8.091228058822784
